<svg width="124" height="133" viewBox="0 0 124 133" fill="none" xmlns="http://www.w3.org/2000/svg">
<rect width="124" height="133" fill="white" fill-opacity="0.9"/>
<path d="M7.8608 22V13.2727H13.4517V14.598H9.44176V16.9673H13.0682V18.2926H9.44176V22H7.8608ZM18.5856 19.2472V15.4545H20.1282V22H18.6325V20.8366H18.5643C18.4165 21.2031 18.1737 21.5028 17.8356 21.7358C17.5004 21.9687 17.087 22.0852 16.5955 22.0852C16.1665 22.0852 15.7873 21.9901 15.4577 21.7997C15.131 21.6065 14.8754 21.3267 14.6907 20.9602C14.506 20.5909 14.4137 20.1449 14.4137 19.6222V15.4545H15.9563V19.3835C15.9563 19.7983 16.07 20.1278 16.2972 20.3722C16.5245 20.6165 16.8228 20.7386 17.1921 20.7386C17.4194 20.7386 17.6396 20.6832 17.8526 20.5724C18.0657 20.4616 18.2404 20.2969 18.3768 20.0781C18.516 19.8565 18.5856 19.5795 18.5856 19.2472ZM24.6122 22.1278C23.956 22.1278 23.3892 21.9915 22.9119 21.7188C22.4375 21.4432 22.0724 21.054 21.8168 20.5511C21.5611 20.0455 21.4332 19.4503 21.4332 18.7656C21.4332 18.0923 21.5611 17.5014 21.8168 16.9929C22.0753 16.4815 22.4361 16.0838 22.8991 15.7997C23.3622 15.5128 23.9062 15.3693 24.5312 15.3693C24.9347 15.3693 25.3153 15.4347 25.6733 15.5653C26.0341 15.6932 26.3523 15.892 26.6278 16.1619C26.9063 16.4318 27.125 16.7756 27.2841 17.1932C27.4432 17.608 27.5227 18.1023 27.5227 18.6761V19.1491H22.1577V18.1094H26.044C26.0412 17.8139 25.9773 17.5511 25.8523 17.321C25.7273 17.0881 25.5526 16.9048 25.3281 16.7713C25.1065 16.6378 24.848 16.571 24.5526 16.571C24.2372 16.571 23.9602 16.6477 23.7216 16.8011C23.483 16.9517 23.2969 17.1506 23.1634 17.3977C23.0327 17.642 22.9659 17.9105 22.9631 18.2031V19.1108C22.9631 19.4915 23.0327 19.8182 23.1719 20.0909C23.3111 20.3608 23.5057 20.5682 23.7557 20.7131C24.0057 20.8551 24.2983 20.9261 24.6335 20.9261C24.858 20.9261 25.0611 20.8949 25.2429 20.8324C25.4247 20.767 25.5824 20.6719 25.7159 20.5469C25.8494 20.4219 25.9503 20.267 26.0185 20.0824L27.4588 20.2443C27.3679 20.625 27.1946 20.9574 26.9389 21.2415C26.6861 21.5227 26.3622 21.7415 25.9673 21.8977C25.5724 22.0511 25.1207 22.1278 24.6122 22.1278ZM30.3704 13.2727V22H28.8278V13.2727H30.3704ZM34.6179 14.598V13.2727H41.581V14.598H38.8835V22H37.3153V14.598H34.6179ZM43.0639 24.4545C42.8537 24.4545 42.6591 24.4375 42.4801 24.4034C42.304 24.3722 42.1634 24.3352 42.0582 24.2926L42.4162 23.0909C42.6406 23.1563 42.8409 23.1875 43.017 23.1847C43.1932 23.1818 43.348 23.1264 43.4815 23.0185C43.6179 22.9134 43.733 22.7372 43.8267 22.4901L43.9588 22.1364L41.5852 15.4545H43.2216L44.7301 20.3977H44.7983L46.3111 15.4545H47.9517L45.331 22.7926C45.2088 23.1392 45.0469 23.4361 44.8452 23.6832C44.6435 23.9332 44.3963 24.1236 44.1037 24.2543C43.8139 24.3878 43.4673 24.4545 43.0639 24.4545ZM49.0192 24.4545V15.4545H50.5362V16.5369H50.6257C50.7053 16.3778 50.8175 16.2088 50.9624 16.0298C51.1072 15.848 51.3033 15.6932 51.5504 15.5653C51.7976 15.4347 52.1129 15.3693 52.4964 15.3693C53.0021 15.3693 53.4581 15.4986 53.8643 15.7571C54.2734 16.0128 54.5973 16.392 54.8359 16.8949C55.0774 17.3949 55.1982 18.0085 55.1982 18.7358C55.1982 19.4545 55.0803 20.0653 54.8445 20.5682C54.6087 21.071 54.2876 21.4545 53.8814 21.7188C53.4751 21.983 53.0149 22.1151 52.5007 22.1151C52.1257 22.1151 51.8146 22.0526 51.5675 21.9276C51.3203 21.8026 51.1214 21.652 50.9709 21.4759C50.8232 21.2969 50.7081 21.1278 50.6257 20.9688H50.5618V24.4545H49.0192ZM50.532 18.7273C50.532 19.1506 50.5916 19.5213 50.7109 19.8395C50.8331 20.1577 51.0078 20.4062 51.2351 20.5852C51.4652 20.7614 51.7436 20.8494 52.0703 20.8494C52.4112 20.8494 52.6967 20.7585 52.9268 20.5767C53.157 20.392 53.3303 20.1406 53.4467 19.8224C53.5661 19.5014 53.6257 19.1364 53.6257 18.7273C53.6257 18.321 53.5675 17.9602 53.451 17.6449C53.3345 17.3295 53.1612 17.0824 52.9311 16.9034C52.701 16.7244 52.4141 16.6349 52.0703 16.6349C51.7408 16.6349 51.4609 16.7216 51.2308 16.8949C51.0007 17.0682 50.826 17.3111 50.7067 17.6236C50.5902 17.9361 50.532 18.304 50.532 18.7273ZM59.4169 22.1278C58.7607 22.1278 58.1939 21.9915 57.7166 21.7188C57.2422 21.4432 56.8771 21.054 56.6214 20.5511C56.3658 20.0455 56.2379 19.4503 56.2379 18.7656C56.2379 18.0923 56.3658 17.5014 56.6214 16.9929C56.88 16.4815 57.2408 16.0838 57.7038 15.7997C58.1669 15.5128 58.7109 15.3693 59.3359 15.3693C59.7393 15.3693 60.12 15.4347 60.478 15.5653C60.8388 15.6932 61.157 15.892 61.4325 16.1619C61.7109 16.4318 61.9297 16.7756 62.0888 17.1932C62.2479 17.608 62.3274 18.1023 62.3274 18.6761V19.1491H56.9624V18.1094H60.8487C60.8459 17.8139 60.782 17.5511 60.657 17.321C60.532 17.0881 60.3572 16.9048 60.1328 16.7713C59.9112 16.6378 59.6527 16.571 59.3572 16.571C59.0419 16.571 58.7649 16.6477 58.5263 16.8011C58.2876 16.9517 58.1016 17.1506 57.968 17.3977C57.8374 17.642 57.7706 17.9105 57.7678 18.2031V19.1108C57.7678 19.4915 57.8374 19.8182 57.9766 20.0909C58.1158 20.3608 58.3104 20.5682 58.5604 20.7131C58.8104 20.8551 59.103 20.9261 59.4382 20.9261C59.6626 20.9261 59.8658 20.8949 60.0476 20.8324C60.2294 20.767 60.3871 20.6719 60.5206 20.5469C60.6541 20.4219 60.755 20.267 60.8232 20.0824L62.2635 20.2443C62.1726 20.625 61.9993 20.9574 61.7436 21.2415C61.4908 21.5227 61.1669 21.7415 60.772 21.8977C60.3771 22.0511 59.9254 22.1278 59.4169 22.1278Z" fill="black"/>
<ellipse cx="11.5" cy="42.5" rx="4.5" ry="5" fill="#459BEB"/>
<path d="M26.75 47H24.0568V38.2727H26.8693C27.7159 38.2727 28.4403 38.4474 29.0426 38.7969C29.6449 39.1435 30.1065 39.642 30.4276 40.2926C30.7486 40.9403 30.9091 41.7159 30.9091 42.6193C30.9091 43.5284 30.7472 44.3111 30.4233 44.9673C30.0994 45.6207 29.6278 46.1236 29.0085 46.4759C28.3892 46.8253 27.6364 47 26.75 47ZM25.1136 46.0625H26.6818C27.4034 46.0625 28.0014 45.9233 28.4759 45.6449C28.9503 45.3665 29.304 44.9702 29.5369 44.456C29.7699 43.9418 29.8864 43.3295 29.8864 42.6193C29.8864 41.9148 29.7713 41.3082 29.5412 40.7997C29.3111 40.2884 28.9673 39.8963 28.5099 39.6236C28.0526 39.348 27.483 39.2102 26.8011 39.2102H25.1136V46.0625ZM32.5455 47V40.4545H33.5511V47H32.5455ZM33.0568 39.3636C32.8608 39.3636 32.6918 39.2969 32.5497 39.1634C32.4105 39.0298 32.3409 38.8693 32.3409 38.6818C32.3409 38.4943 32.4105 38.3338 32.5497 38.2003C32.6918 38.0668 32.8608 38 33.0568 38C33.2528 38 33.4205 38.0668 33.5597 38.2003C33.7017 38.3338 33.7727 38.4943 33.7727 38.6818C33.7727 38.8693 33.7017 39.0298 33.5597 39.1634C33.4205 39.2969 33.2528 39.3636 33.0568 39.3636ZM38.1374 47.1364C37.5067 47.1364 36.9627 46.9972 36.5053 46.7188C36.0508 46.4375 35.6999 46.0455 35.4528 45.5426C35.2085 45.0369 35.0863 44.4489 35.0863 43.7784C35.0863 43.108 35.2085 42.517 35.4528 42.0057C35.6999 41.4915 36.0437 41.0909 36.484 40.804C36.9272 40.5142 37.4442 40.3693 38.0352 40.3693C38.3761 40.3693 38.7127 40.4261 39.0451 40.5398C39.3775 40.6534 39.68 40.8381 39.9528 41.0938C40.2255 41.3466 40.4428 41.6818 40.6048 42.0994C40.7667 42.517 40.8477 43.0312 40.8477 43.642V44.0682H35.8022V43.1989H39.8249C39.8249 42.8295 39.7511 42.5 39.6033 42.2102C39.4585 41.9205 39.2511 41.6918 38.9812 41.5241C38.7141 41.3565 38.3988 41.2727 38.0352 41.2727C37.6346 41.2727 37.288 41.3722 36.9954 41.571C36.7056 41.767 36.4826 42.0227 36.3263 42.3381C36.1701 42.6534 36.092 42.9915 36.092 43.3523V43.9318C36.092 44.4261 36.1772 44.8452 36.3477 45.1889C36.521 45.5298 36.761 45.7898 37.0678 45.9688C37.3746 46.1449 37.7312 46.233 38.1374 46.233C38.4016 46.233 38.6403 46.196 38.8533 46.1222C39.0692 46.0455 39.2553 45.9318 39.4116 45.7812C39.5678 45.6278 39.6886 45.4375 39.7738 45.2102L40.7454 45.483C40.6431 45.8125 40.4712 46.1023 40.2298 46.3523C39.9883 46.5994 39.69 46.7926 39.3349 46.9318C38.9798 47.0682 38.5806 47.1364 38.1374 47.1364ZM47.0138 41.9205L46.1104 42.1761C46.0536 42.0256 45.9698 41.8793 45.859 41.7372C45.7511 41.5923 45.6033 41.473 45.4158 41.3793C45.2283 41.2855 44.9883 41.2386 44.6957 41.2386C44.2951 41.2386 43.9613 41.331 43.6942 41.5156C43.43 41.6974 43.2979 41.929 43.2979 42.2102C43.2979 42.4602 43.3888 42.6577 43.5707 42.8026C43.7525 42.9474 44.0366 43.0682 44.4229 43.1648L45.3945 43.4034C45.9798 43.5455 46.4158 43.7628 46.7028 44.0554C46.9897 44.3452 47.1332 44.7187 47.1332 45.1761C47.1332 45.5511 47.0252 45.8864 46.8093 46.1818C46.5962 46.4773 46.2979 46.7102 45.9144 46.8807C45.5309 47.0511 45.0849 47.1364 44.5763 47.1364C43.9087 47.1364 43.3562 46.9915 42.9187 46.7017C42.4812 46.4119 42.2042 45.9886 42.0877 45.4318L43.0423 45.1932C43.1332 45.5455 43.305 45.8097 43.5579 45.9858C43.8136 46.1619 44.1474 46.25 44.5593 46.25C45.0281 46.25 45.4002 46.1506 45.6758 45.9517C45.9542 45.75 46.0934 45.5085 46.0934 45.2273C46.0934 45 46.0138 44.8097 45.8548 44.6562C45.6957 44.5 45.4513 44.3835 45.1218 44.3068L44.0309 44.0511C43.4315 43.9091 42.9911 43.6889 42.7099 43.3906C42.4315 43.0895 42.2923 42.7131 42.2923 42.2614C42.2923 41.892 42.396 41.5653 42.6033 41.2812C42.8136 40.9972 43.0991 40.7741 43.4599 40.6122C43.8235 40.4503 44.2354 40.3693 44.6957 40.3693C45.3434 40.3693 45.8519 40.5114 46.2212 40.7955C46.5934 41.0795 46.8576 41.4545 47.0138 41.9205ZM51.3913 47.1364C50.7607 47.1364 50.2166 46.9972 49.7592 46.7188C49.3047 46.4375 48.9538 46.0455 48.7067 45.5426C48.4624 45.0369 48.3402 44.4489 48.3402 43.7784C48.3402 43.108 48.4624 42.517 48.7067 42.0057C48.9538 41.4915 49.2976 41.0909 49.7379 40.804C50.1811 40.5142 50.6982 40.3693 51.2891 40.3693C51.63 40.3693 51.9666 40.4261 52.299 40.5398C52.6314 40.6534 52.9339 40.8381 53.2067 41.0938C53.4794 41.3466 53.6967 41.6818 53.8587 42.0994C54.0206 42.517 54.1016 43.0312 54.1016 43.642V44.0682H49.0561V43.1989H53.0788C53.0788 42.8295 53.005 42.5 52.8572 42.2102C52.7124 41.9205 52.505 41.6918 52.2351 41.5241C51.968 41.3565 51.6527 41.2727 51.2891 41.2727C50.8885 41.2727 50.5419 41.3722 50.2493 41.571C49.9595 41.767 49.7365 42.0227 49.5803 42.3381C49.424 42.6534 49.3459 42.9915 49.3459 43.3523V43.9318C49.3459 44.4261 49.4311 44.8452 49.6016 45.1889C49.7749 45.5298 50.0149 45.7898 50.3217 45.9688C50.6286 46.1449 50.9851 46.233 51.3913 46.233C51.6555 46.233 51.8942 46.196 52.1072 46.1222C52.3232 46.0455 52.5092 45.9318 52.6655 45.7812C52.8217 45.6278 52.9425 45.4375 53.0277 45.2102L53.9993 45.483C53.897 45.8125 53.7251 46.1023 53.4837 46.3523C53.2422 46.5994 52.9439 46.7926 52.5888 46.9318C52.2337 47.0682 51.8345 47.1364 51.3913 47.1364ZM56.6371 38.2727V47H55.6314V38.2727H56.6371Z" fill="black"/>
<ellipse cx="11.5" cy="60.5" rx="4.5" ry="5" fill="#45EB9B"/>
<path d="M24.0568 65V56.2727H27.108C27.7159 56.2727 28.2173 56.3778 28.6122 56.5881C29.0071 56.7955 29.3011 57.0753 29.4943 57.4276C29.6875 57.777 29.7841 58.1648 29.7841 58.5909C29.7841 58.9659 29.7173 59.2756 29.5838 59.5199C29.4531 59.7642 29.2798 59.9574 29.0639 60.0994C28.8509 60.2415 28.6193 60.3466 28.3693 60.4148V60.5C28.6364 60.517 28.9048 60.6108 29.1747 60.7812C29.4446 60.9517 29.6705 61.196 29.8523 61.5142C30.0341 61.8324 30.125 62.2216 30.125 62.6818C30.125 63.1193 30.0256 63.5128 29.8267 63.8622C29.6278 64.2116 29.3139 64.4886 28.8849 64.6932C28.456 64.8977 27.8977 65 27.2102 65H24.0568ZM25.1136 64.0625H27.2102C27.9006 64.0625 28.3906 63.929 28.6804 63.6619C28.973 63.392 29.1193 63.0653 29.1193 62.6818C29.1193 62.3864 29.044 62.1136 28.8935 61.8636C28.7429 61.6108 28.5284 61.4091 28.25 61.2585C27.9716 61.1051 27.642 61.0284 27.2614 61.0284H25.1136V64.0625ZM25.1136 60.108H27.0739C27.392 60.108 27.679 60.0455 27.9347 59.9205C28.1932 59.7955 28.3977 59.6193 28.5483 59.392C28.7017 59.1648 28.7784 58.8977 28.7784 58.5909C28.7784 58.2074 28.6449 57.8821 28.3778 57.6151C28.1108 57.3452 27.6875 57.2102 27.108 57.2102H25.1136V60.108ZM31.7251 65V58.4545H32.7308V65H31.7251ZM32.2365 57.3636C32.0405 57.3636 31.8714 57.2969 31.7294 57.1634C31.5902 57.0298 31.5206 56.8693 31.5206 56.6818C31.5206 56.4943 31.5902 56.3338 31.7294 56.2003C31.8714 56.0668 32.0405 56 32.2365 56C32.4325 56 32.6001 56.0668 32.7393 56.2003C32.8814 56.3338 32.9524 56.4943 32.9524 56.6818C32.9524 56.8693 32.8814 57.0298 32.7393 57.1634C32.6001 57.2969 32.4325 57.3636 32.2365 57.3636ZM37.2319 65.1364C36.641 65.1364 36.1225 64.9957 35.6765 64.7145C35.2333 64.4332 34.8867 64.0398 34.6367 63.5341C34.3896 63.0284 34.266 62.4375 34.266 61.7614C34.266 61.0795 34.3896 60.4844 34.6367 59.9759C34.8867 59.4673 35.2333 59.0724 35.6765 58.7912C36.1225 58.5099 36.641 58.3693 37.2319 58.3693C37.8228 58.3693 38.3398 58.5099 38.783 58.7912C39.229 59.0724 39.5756 59.4673 39.8228 59.9759C40.0728 60.4844 40.1978 61.0795 40.1978 61.7614C40.1978 62.4375 40.0728 63.0284 39.8228 63.5341C39.5756 64.0398 39.229 64.4332 38.783 64.7145C38.3398 64.9957 37.8228 65.1364 37.2319 65.1364ZM37.2319 64.233C37.6808 64.233 38.0501 64.1179 38.3398 63.8878C38.6296 63.6577 38.8441 63.3551 38.9833 62.9801C39.1225 62.6051 39.1921 62.1989 39.1921 61.7614C39.1921 61.3239 39.1225 60.9162 38.9833 60.5384C38.8441 60.1605 38.6296 59.8551 38.3398 59.6222C38.0501 59.3892 37.6808 59.2727 37.2319 59.2727C36.783 59.2727 36.4137 59.3892 36.1239 59.6222C35.8342 59.8551 35.6197 60.1605 35.4805 60.5384C35.3413 60.9162 35.2717 61.3239 35.2717 61.7614C35.2717 62.1989 35.3413 62.6051 35.4805 62.9801C35.6197 63.3551 35.8342 63.6577 36.1239 63.8878C36.4137 64.1179 36.783 64.233 37.2319 64.233ZM44.2045 65.1364C43.6591 65.1364 43.1776 64.9986 42.7599 64.723C42.3423 64.4446 42.0156 64.0526 41.7798 63.5469C41.544 63.0384 41.4261 62.4375 41.4261 61.7443C41.4261 61.0568 41.544 60.4602 41.7798 59.9545C42.0156 59.4489 42.3438 59.0582 42.7642 58.7827C43.1847 58.5071 43.6705 58.3693 44.2216 58.3693C44.6477 58.3693 44.9844 58.4403 45.2315 58.5824C45.4815 58.7216 45.6719 58.8807 45.8026 59.0597C45.9361 59.2358 46.0398 59.3807 46.1136 59.4943H46.1989V56.2727H47.2045V65H46.233V63.9943H46.1136C46.0398 64.1136 45.9347 64.2642 45.7983 64.446C45.6619 64.625 45.4673 64.7855 45.2145 64.9276C44.9616 65.0668 44.625 65.1364 44.2045 65.1364ZM44.3409 64.233C44.7443 64.233 45.0852 64.1278 45.3636 63.9176C45.642 63.7045 45.8537 63.4105 45.9986 63.0355C46.1435 62.6577 46.2159 62.2216 46.2159 61.7273C46.2159 61.2386 46.1449 60.8111 46.0028 60.4446C45.8608 60.0753 45.6506 59.7884 45.3722 59.5838C45.0938 59.3764 44.75 59.2727 44.3409 59.2727C43.9148 59.2727 43.5597 59.3821 43.2756 59.6009C42.9943 59.8168 42.7827 60.1108 42.6406 60.483C42.5014 60.8523 42.4318 61.267 42.4318 61.7273C42.4318 62.1932 42.5028 62.6165 42.6449 62.9972C42.7898 63.375 43.0028 63.6761 43.2841 63.9006C43.5682 64.1222 43.9205 64.233 44.3409 64.233ZM49.1861 65V58.4545H50.1918V65H49.1861ZM49.6974 57.3636C49.5014 57.3636 49.3324 57.2969 49.1903 57.1634C49.0511 57.0298 48.9815 56.8693 48.9815 56.6818C48.9815 56.4943 49.0511 56.3338 49.1903 56.2003C49.3324 56.0668 49.5014 56 49.6974 56C49.8935 56 50.0611 56.0668 50.2003 56.2003C50.3423 56.3338 50.4134 56.4943 50.4134 56.6818C50.4134 56.8693 50.3423 57.0298 50.2003 57.1634C50.0611 57.2969 49.8935 57.3636 49.6974 57.3636ZM54.7781 65.1364C54.1474 65.1364 53.6033 64.9972 53.146 64.7188C52.6914 64.4375 52.3406 64.0455 52.0934 63.5426C51.8491 63.0369 51.7269 62.4489 51.7269 61.7784C51.7269 61.108 51.8491 60.517 52.0934 60.0057C52.3406 59.4915 52.6843 59.0909 53.1246 58.804C53.5678 58.5142 54.0849 58.3693 54.6758 58.3693C55.0167 58.3693 55.3533 58.4261 55.6857 58.5398C56.0181 58.6534 56.3207 58.8381 56.5934 59.0938C56.8661 59.3466 57.0835 59.6818 57.2454 60.0994C57.4073 60.517 57.4883 61.0312 57.4883 61.642V62.0682H52.4428V61.1989H56.4656C56.4656 60.8295 56.3917 60.5 56.244 60.2102C56.0991 59.9205 55.8917 59.6918 55.6218 59.5241C55.3548 59.3565 55.0394 59.2727 54.6758 59.2727C54.2752 59.2727 53.9286 59.3722 53.636 59.571C53.3462 59.767 53.1232 60.0227 52.967 60.3381C52.8107 60.6534 52.7326 60.9915 52.7326 61.3523V61.9318C52.7326 62.4261 52.8178 62.8452 52.9883 63.1889C53.1616 63.5298 53.4016 63.7898 53.7085 63.9688C54.0153 64.1449 54.3718 64.233 54.7781 64.233C55.0423 64.233 55.2809 64.196 55.494 64.1222C55.7099 64.0455 55.896 63.9318 56.0522 63.7812C56.2085 63.6278 56.3292 63.4375 56.4144 63.2102L57.386 63.483C57.2837 63.8125 57.1119 64.1023 56.8704 64.3523C56.6289 64.5994 56.3306 64.7926 55.9755 64.9318C55.6204 65.0682 55.2212 65.1364 54.7781 65.1364ZM63.6545 59.9205L62.7511 60.1761C62.6942 60.0256 62.6104 59.8793 62.4996 59.7372C62.3917 59.5923 62.244 59.473 62.0565 59.3793C61.869 59.2855 61.6289 59.2386 61.3363 59.2386C60.9357 59.2386 60.6019 59.331 60.3349 59.5156C60.0707 59.6974 59.9386 59.929 59.9386 60.2102C59.9386 60.4602 60.0295 60.6577 60.2113 60.8026C60.3931 60.9474 60.6772 61.0682 61.0636 61.1648L62.0352 61.4034C62.6204 61.5455 63.0565 61.7628 63.3434 62.0554C63.6303 62.3452 63.7738 62.7187 63.7738 63.1761C63.7738 63.5511 63.6658 63.8864 63.4499 64.1818C63.2369 64.4773 62.9386 64.7102 62.555 64.8807C62.1715 65.0511 61.7255 65.1364 61.217 65.1364C60.5494 65.1364 59.9968 64.9915 59.5593 64.7017C59.1218 64.4119 58.8448 63.9886 58.7283 63.4318L59.6829 63.1932C59.7738 63.5455 59.9457 63.8097 60.1985 63.9858C60.4542 64.1619 60.788 64.25 61.1999 64.25C61.6687 64.25 62.0408 64.1506 62.3164 63.9517C62.5948 63.75 62.734 63.5085 62.734 63.2273C62.734 63 62.6545 62.8097 62.4954 62.6562C62.3363 62.5 62.092 62.3835 61.7624 62.3068L60.6715 62.0511C60.0721 61.9091 59.6317 61.6889 59.3505 61.3906C59.0721 61.0895 58.9329 60.7131 58.9329 60.2614C58.9329 59.892 59.0366 59.5653 59.244 59.2812C59.4542 58.9972 59.7397 58.7741 60.1005 58.6122C60.4641 58.4503 60.8761 58.3693 61.3363 58.3693C61.984 58.3693 62.4925 58.5114 62.8619 58.7955C63.234 59.0795 63.4982 59.4545 63.6545 59.9205ZM68.032 65.1364C67.4013 65.1364 66.8572 64.9972 66.3999 64.7188C65.9453 64.4375 65.5945 64.0455 65.3473 63.5426C65.103 63.0369 64.9808 62.4489 64.9808 61.7784C64.9808 61.108 65.103 60.517 65.3473 60.0057C65.5945 59.4915 65.9382 59.0909 66.3786 58.804C66.8217 58.5142 67.3388 58.3693 67.9297 58.3693C68.2706 58.3693 68.6072 58.4261 68.9396 58.5398C69.272 58.6534 69.5746 58.8381 69.8473 59.0938C70.12 59.3466 70.3374 59.6818 70.4993 60.0994C70.6612 60.517 70.7422 61.0312 70.7422 61.642V62.0682H65.6967V61.1989H69.7195C69.7195 60.8295 69.6456 60.5 69.4979 60.2102C69.353 59.9205 69.1456 59.6918 68.8757 59.5241C68.6087 59.3565 68.2933 59.2727 67.9297 59.2727C67.5291 59.2727 67.1825 59.3722 66.8899 59.571C66.6001 59.767 66.3771 60.0227 66.2209 60.3381C66.0646 60.6534 65.9865 60.9915 65.9865 61.3523V61.9318C65.9865 62.4261 66.0717 62.8452 66.2422 63.1889C66.4155 63.5298 66.6555 63.7898 66.9624 63.9688C67.2692 64.1449 67.6257 64.233 68.032 64.233C68.2962 64.233 68.5348 64.196 68.7479 64.1222C68.9638 64.0455 69.1499 63.9318 69.3061 63.7812C69.4624 63.6278 69.5831 63.4375 69.6683 63.2102L70.6399 63.483C70.5376 63.8125 70.3658 64.1023 70.1243 64.3523C69.8828 64.5994 69.5845 64.7926 69.2294 64.9318C68.8743 65.0682 68.4751 65.1364 68.032 65.1364ZM73.2777 56.2727V65H72.272V56.2727H73.2777Z" fill="black"/>
<ellipse cx="11.5" cy="78.5" rx="4.5" ry="5" fill="#E8EB45"/>
<path d="M24.0568 83V74.2727H27.0057C27.6903 74.2727 28.25 74.3963 28.6847 74.6435C29.1222 74.8878 29.446 75.2188 29.6562 75.6364C29.8665 76.054 29.9716 76.5199 29.9716 77.0341C29.9716 77.5483 29.8665 78.0156 29.6562 78.4361C29.4489 78.8565 29.1278 79.1918 28.6932 79.4418C28.2585 79.6889 27.7017 79.8125 27.0227 79.8125H24.9091V78.875H26.9886C27.4574 78.875 27.8338 78.794 28.1179 78.6321C28.402 78.4702 28.608 78.2514 28.7358 77.9759C28.8665 77.6974 28.9318 77.3835 28.9318 77.0341C28.9318 76.6847 28.8665 76.3722 28.7358 76.0966C28.608 75.821 28.4006 75.6051 28.1136 75.4489C27.8267 75.2898 27.446 75.2102 26.9716 75.2102H25.1136V83H24.0568ZM34.2116 83.1364C33.581 83.1364 33.0369 82.9972 32.5795 82.7188C32.125 82.4375 31.7741 82.0455 31.527 81.5426C31.2827 81.0369 31.1605 80.4489 31.1605 79.7784C31.1605 79.108 31.2827 78.517 31.527 78.0057C31.7741 77.4915 32.1179 77.0909 32.5582 76.804C33.0014 76.5142 33.5185 76.3693 34.1094 76.3693C34.4503 76.3693 34.7869 76.4261 35.1193 76.5398C35.4517 76.6534 35.7543 76.8381 36.027 77.0938C36.2997 77.3466 36.517 77.6818 36.679 78.0994C36.8409 78.517 36.9219 79.0312 36.9219 79.642V80.0682H31.8764V79.1989H35.8991C35.8991 78.8295 35.8253 78.5 35.6776 78.2102C35.5327 77.9205 35.3253 77.6918 35.0554 77.5241C34.7884 77.3565 34.473 77.2727 34.1094 77.2727C33.7088 77.2727 33.3622 77.3722 33.0696 77.571C32.7798 77.767 32.5568 78.0227 32.4006 78.3381C32.2443 78.6534 32.1662 78.9915 32.1662 79.3523V79.9318C32.1662 80.4261 32.2514 80.8452 32.4219 81.1889C32.5952 81.5298 32.8352 81.7898 33.142 81.9688C33.4489 82.1449 33.8054 82.233 34.2116 82.233C34.4759 82.233 34.7145 82.196 34.9276 82.1222C35.1435 82.0455 35.3295 81.9318 35.4858 81.7812C35.642 81.6278 35.7628 81.4375 35.848 81.2102L36.8196 81.483C36.7173 81.8125 36.5455 82.1023 36.304 82.3523C36.0625 82.5994 35.7642 82.7926 35.4091 82.9318C35.054 83.0682 34.6548 83.1364 34.2116 83.1364ZM41.2983 76.4545V77.3068H37.9062V76.4545H41.2983ZM38.8949 74.8864H39.9006V81.125C39.9006 81.4091 39.9418 81.6222 40.0241 81.7642C40.1094 81.9034 40.2173 81.9972 40.348 82.0455C40.4815 82.0909 40.6222 82.1136 40.7699 82.1136C40.8807 82.1136 40.9716 82.108 41.0426 82.0966C41.1136 82.0824 41.1705 82.071 41.2131 82.0625L41.4176 82.9659C41.3494 82.9915 41.2543 83.017 41.1321 83.0426C41.0099 83.071 40.8551 83.0852 40.6676 83.0852C40.3835 83.0852 40.1051 83.0241 39.8324 82.902C39.5625 82.7798 39.3381 82.5938 39.1591 82.3438C38.983 82.0938 38.8949 81.7784 38.8949 81.3977V74.8864ZM42.8111 83V76.4545H43.7827V77.4432H43.8509C43.9702 77.1193 44.1861 76.8565 44.4986 76.6548C44.8111 76.4531 45.1634 76.3523 45.5554 76.3523C45.6293 76.3523 45.7216 76.3537 45.8324 76.3565C45.9432 76.3594 46.027 76.3636 46.0838 76.3693V77.392C46.0497 77.3835 45.9716 77.3707 45.8494 77.3537C45.7301 77.3338 45.6037 77.3239 45.4702 77.3239C45.152 77.3239 44.8679 77.3906 44.6179 77.5241C44.3707 77.6548 44.1747 77.8366 44.0298 78.0696C43.8878 78.2997 43.8168 78.5625 43.8168 78.858V83H42.8111ZM49.7358 83.1364C49.1449 83.1364 48.6264 82.9957 48.1804 82.7145C47.7372 82.4332 47.3906 82.0398 47.1406 81.5341C46.8935 81.0284 46.7699 80.4375 46.7699 79.7614C46.7699 79.0795 46.8935 78.4844 47.1406 77.9759C47.3906 77.4673 47.7372 77.0724 48.1804 76.7912C48.6264 76.5099 49.1449 76.3693 49.7358 76.3693C50.3267 76.3693 50.8438 76.5099 51.2869 76.7912C51.733 77.0724 52.0795 77.4673 52.3267 77.9759C52.5767 78.4844 52.7017 79.0795 52.7017 79.7614C52.7017 80.4375 52.5767 81.0284 52.3267 81.5341C52.0795 82.0398 51.733 82.4332 51.2869 82.7145C50.8438 82.9957 50.3267 83.1364 49.7358 83.1364ZM49.7358 82.233C50.1847 82.233 50.554 82.1179 50.8438 81.8878C51.1335 81.6577 51.348 81.3551 51.4872 80.9801C51.6264 80.6051 51.696 80.1989 51.696 79.7614C51.696 79.3239 51.6264 78.9162 51.4872 78.5384C51.348 78.1605 51.1335 77.8551 50.8438 77.6222C50.554 77.3892 50.1847 77.2727 49.7358 77.2727C49.2869 77.2727 48.9176 77.3892 48.6278 77.6222C48.3381 77.8551 48.1236 78.1605 47.9844 78.5384C47.8452 78.9162 47.7756 79.3239 47.7756 79.7614C47.7756 80.1989 47.8452 80.6051 47.9844 80.9801C48.1236 81.3551 48.3381 81.6577 48.6278 81.8878C48.9176 82.1179 49.2869 82.233 49.7358 82.233ZM55.2425 74.2727V83H54.2369V74.2727H55.2425Z" fill="black"/>
<ellipse cx="11.5" cy="96.5" rx="4.5" ry="5" fill="#EB6345"/>
<path d="M24.0568 101V92.2727H27.0057C27.6903 92.2727 28.25 92.3963 28.6847 92.6435C29.1222 92.8878 29.446 93.2188 29.6562 93.6364C29.8665 94.054 29.9716 94.5199 29.9716 95.0341C29.9716 95.5483 29.8665 96.0156 29.6562 96.4361C29.4489 96.8565 29.1278 97.1918 28.6932 97.4418C28.2585 97.6889 27.7017 97.8125 27.0227 97.8125H24.9091V96.875H26.9886C27.4574 96.875 27.8338 96.794 28.1179 96.6321C28.402 96.4702 28.608 96.2514 28.7358 95.9759C28.8665 95.6974 28.9318 95.3835 28.9318 95.0341C28.9318 94.6847 28.8665 94.3722 28.7358 94.0966C28.608 93.821 28.4006 93.6051 28.1136 93.4489C27.8267 93.2898 27.446 93.2102 26.9716 93.2102H25.1136V101H24.0568ZM34.2116 101.136C33.581 101.136 33.0369 100.997 32.5795 100.719C32.125 100.438 31.7741 100.045 31.527 99.5426C31.2827 99.0369 31.1605 98.4489 31.1605 97.7784C31.1605 97.108 31.2827 96.517 31.527 96.0057C31.7741 95.4915 32.1179 95.0909 32.5582 94.804C33.0014 94.5142 33.5185 94.3693 34.1094 94.3693C34.4503 94.3693 34.7869 94.4261 35.1193 94.5398C35.4517 94.6534 35.7543 94.8381 36.027 95.0938C36.2997 95.3466 36.517 95.6818 36.679 96.0994C36.8409 96.517 36.9219 97.0312 36.9219 97.642V98.0682H31.8764V97.1989H35.8991C35.8991 96.8295 35.8253 96.5 35.6776 96.2102C35.5327 95.9205 35.3253 95.6918 35.0554 95.5241C34.7884 95.3565 34.473 95.2727 34.1094 95.2727C33.7088 95.2727 33.3622 95.3722 33.0696 95.571C32.7798 95.767 32.5568 96.0227 32.4006 96.3381C32.2443 96.6534 32.1662 96.9915 32.1662 97.3523V97.9318C32.1662 98.4261 32.2514 98.8452 32.4219 99.1889C32.5952 99.5298 32.8352 99.7898 33.142 99.9688C33.4489 100.145 33.8054 100.233 34.2116 100.233C34.4759 100.233 34.7145 100.196 34.9276 100.122C35.1435 100.045 35.3295 99.9318 35.4858 99.7812C35.642 99.6278 35.7628 99.4375 35.848 99.2102L36.8196 99.483C36.7173 99.8125 36.5455 100.102 36.304 100.352C36.0625 100.599 35.7642 100.793 35.4091 100.932C35.054 101.068 34.6548 101.136 34.2116 101.136ZM41.2983 94.4545V95.3068H37.9062V94.4545H41.2983ZM38.8949 92.8864H39.9006V99.125C39.9006 99.4091 39.9418 99.6222 40.0241 99.7642C40.1094 99.9034 40.2173 99.9972 40.348 100.045C40.4815 100.091 40.6222 100.114 40.7699 100.114C40.8807 100.114 40.9716 100.108 41.0426 100.097C41.1136 100.082 41.1705 100.071 41.2131 100.062L41.4176 100.966C41.3494 100.991 41.2543 101.017 41.1321 101.043C41.0099 101.071 40.8551 101.085 40.6676 101.085C40.3835 101.085 40.1051 101.024 39.8324 100.902C39.5625 100.78 39.3381 100.594 39.1591 100.344C38.983 100.094 38.8949 99.7784 38.8949 99.3977V92.8864ZM42.8111 101V94.4545H43.7827V95.4432H43.8509C43.9702 95.1193 44.1861 94.8565 44.4986 94.6548C44.8111 94.4531 45.1634 94.3523 45.5554 94.3523C45.6293 94.3523 45.7216 94.3537 45.8324 94.3565C45.9432 94.3594 46.027 94.3636 46.0838 94.3693V95.392C46.0497 95.3835 45.9716 95.3707 45.8494 95.3537C45.7301 95.3338 45.6037 95.3239 45.4702 95.3239C45.152 95.3239 44.8679 95.3906 44.6179 95.5241C44.3707 95.6548 44.1747 95.8366 44.0298 96.0696C43.8878 96.2997 43.8168 96.5625 43.8168 96.858V101H42.8111ZM49.7358 101.136C49.1449 101.136 48.6264 100.996 48.1804 100.714C47.7372 100.433 47.3906 100.04 47.1406 99.5341C46.8935 99.0284 46.7699 98.4375 46.7699 97.7614C46.7699 97.0795 46.8935 96.4844 47.1406 95.9759C47.3906 95.4673 47.7372 95.0724 48.1804 94.7912C48.6264 94.5099 49.1449 94.3693 49.7358 94.3693C50.3267 94.3693 50.8438 94.5099 51.2869 94.7912C51.733 95.0724 52.0795 95.4673 52.3267 95.9759C52.5767 96.4844 52.7017 97.0795 52.7017 97.7614C52.7017 98.4375 52.5767 99.0284 52.3267 99.5341C52.0795 100.04 51.733 100.433 51.2869 100.714C50.8438 100.996 50.3267 101.136 49.7358 101.136ZM49.7358 100.233C50.1847 100.233 50.554 100.118 50.8438 99.8878C51.1335 99.6577 51.348 99.3551 51.4872 98.9801C51.6264 98.6051 51.696 98.1989 51.696 97.7614C51.696 97.3239 51.6264 96.9162 51.4872 96.5384C51.348 96.1605 51.1335 95.8551 50.8438 95.6222C50.554 95.3892 50.1847 95.2727 49.7358 95.2727C49.2869 95.2727 48.9176 95.3892 48.6278 95.6222C48.3381 95.8551 48.1236 96.1605 47.9844 96.5384C47.8452 96.9162 47.7756 97.3239 47.7756 97.7614C47.7756 98.1989 47.8452 98.6051 47.9844 98.9801C48.1236 99.3551 48.3381 99.6577 48.6278 99.8878C48.9176 100.118 49.2869 100.233 49.7358 100.233ZM55.2425 92.2727V101H54.2369V92.2727H55.2425ZM60.5959 101V92.2727H63.5447C64.2294 92.2727 64.7891 92.3963 65.2237 92.6435C65.6612 92.8878 65.9851 93.2188 66.1953 93.6364C66.4055 94.054 66.5107 94.5199 66.5107 95.0341C66.5107 95.5483 66.4055 96.0156 66.1953 96.4361C65.9879 96.8565 65.6669 97.1918 65.2322 97.4418C64.7976 97.6889 64.2408 97.8125 63.5618 97.8125H61.4482V96.875H63.5277C63.9964 96.875 64.3729 96.794 64.657 96.6321C64.9411 96.4702 65.147 96.2514 65.2749 95.9759C65.4055 95.6974 65.4709 95.3835 65.4709 95.0341C65.4709 94.6847 65.4055 94.3722 65.2749 94.0966C65.147 93.821 64.9396 93.6051 64.6527 93.4489C64.3658 93.2898 63.9851 93.2102 63.5107 93.2102H61.6527V101H60.5959ZM68.0767 101V94.4545H69.0483V95.4432H69.1165C69.2358 95.1193 69.4517 94.8565 69.7642 94.6548C70.0767 94.4531 70.429 94.3523 70.821 94.3523C70.8949 94.3523 70.9872 94.3537 71.098 94.3565C71.2088 94.3594 71.2926 94.3636 71.3494 94.3693V95.392C71.3153 95.3835 71.2372 95.3707 71.1151 95.3537C70.9957 95.3338 70.8693 95.3239 70.7358 95.3239C70.4176 95.3239 70.1335 95.3906 69.8835 95.5241C69.6364 95.6548 69.4403 95.8366 69.2955 96.0696C69.1534 96.2997 69.0824 96.5625 69.0824 96.858V101H68.0767Z" fill="black"/>
<ellipse cx="11.5" cy="114.5" rx="4.5" ry="5" fill="#C045EB"/>
<path d="M31.4205 114.636C31.4205 115.557 31.2543 116.352 30.9219 117.023C30.5895 117.693 30.1335 118.21 29.554 118.574C28.9744 118.938 28.3125 119.119 27.5682 119.119C26.8239 119.119 26.1619 118.938 25.5824 118.574C25.0028 118.21 24.5469 117.693 24.2145 117.023C23.8821 116.352 23.7159 115.557 23.7159 114.636C23.7159 113.716 23.8821 112.92 24.2145 112.25C24.5469 111.58 25.0028 111.062 25.5824 110.699C26.1619 110.335 26.8239 110.153 27.5682 110.153C28.3125 110.153 28.9744 110.335 29.554 110.699C30.1335 111.062 30.5895 111.58 30.9219 112.25C31.2543 112.92 31.4205 113.716 31.4205 114.636ZM30.3977 114.636C30.3977 113.881 30.2713 113.243 30.0185 112.723C29.7685 112.203 29.429 111.81 29 111.543C28.5739 111.276 28.0966 111.142 27.5682 111.142C27.0398 111.142 26.5611 111.276 26.1321 111.543C25.706 111.81 25.3665 112.203 25.1136 112.723C24.8636 113.243 24.7386 113.881 24.7386 114.636C24.7386 115.392 24.8636 116.03 25.1136 116.55C25.3665 117.07 25.706 117.463 26.1321 117.73C26.5611 117.997 27.0398 118.131 27.5682 118.131C28.0966 118.131 28.5739 117.997 29 117.73C29.429 117.463 29.7685 117.07 30.0185 116.55C30.2713 116.03 30.3977 115.392 30.3977 114.636ZM35.9077 112.455V113.307H32.5156V112.455H35.9077ZM33.5043 110.886H34.5099V117.125C34.5099 117.409 34.5511 117.622 34.6335 117.764C34.7188 117.903 34.8267 117.997 34.9574 118.045C35.0909 118.091 35.2315 118.114 35.3793 118.114C35.4901 118.114 35.581 118.108 35.652 118.097C35.723 118.082 35.7798 118.071 35.8224 118.062L36.027 118.966C35.9588 118.991 35.8636 119.017 35.7415 119.043C35.6193 119.071 35.4645 119.085 35.277 119.085C34.9929 119.085 34.7145 119.024 34.4418 118.902C34.1719 118.78 33.9474 118.594 33.7685 118.344C33.5923 118.094 33.5043 117.778 33.5043 117.398V110.886ZM38.5668 115.062V119H37.5611V110.273H38.5668V113.477H38.652C38.8054 113.139 39.0355 112.871 39.3423 112.672C39.652 112.47 40.0639 112.369 40.5781 112.369C41.0241 112.369 41.4148 112.459 41.75 112.638C42.0852 112.814 42.3452 113.085 42.5298 113.452C42.7173 113.815 42.8111 114.278 42.8111 114.841V119H41.8054V114.909C41.8054 114.389 41.6705 113.987 41.4006 113.703C41.1335 113.416 40.7628 113.273 40.2884 113.273C39.9588 113.273 39.6634 113.342 39.402 113.482C39.1435 113.621 38.9389 113.824 38.7884 114.091C38.6406 114.358 38.5668 114.682 38.5668 115.062ZM47.3952 119.136C46.7646 119.136 46.2205 118.997 45.7631 118.719C45.3086 118.438 44.9577 118.045 44.7106 117.543C44.4663 117.037 44.3441 116.449 44.3441 115.778C44.3441 115.108 44.4663 114.517 44.7106 114.006C44.9577 113.491 45.3015 113.091 45.7418 112.804C46.185 112.514 46.7021 112.369 47.293 112.369C47.6339 112.369 47.9705 112.426 48.3029 112.54C48.6353 112.653 48.9379 112.838 49.2106 113.094C49.4833 113.347 49.7006 113.682 49.8626 114.099C50.0245 114.517 50.1055 115.031 50.1055 115.642V116.068H45.06V115.199H49.0827C49.0827 114.83 49.0089 114.5 48.8612 114.21C48.7163 113.92 48.5089 113.692 48.239 113.524C47.9719 113.357 47.6566 113.273 47.293 113.273C46.8924 113.273 46.5458 113.372 46.2532 113.571C45.9634 113.767 45.7404 114.023 45.5842 114.338C45.4279 114.653 45.3498 114.991 45.3498 115.352V115.932C45.3498 116.426 45.435 116.845 45.6055 117.189C45.7788 117.53 46.0188 117.79 46.3256 117.969C46.6325 118.145 46.989 118.233 47.3952 118.233C47.6594 118.233 47.8981 118.196 48.1112 118.122C48.3271 118.045 48.5131 117.932 48.6694 117.781C48.8256 117.628 48.9464 117.437 49.0316 117.21L50.0032 117.483C49.9009 117.812 49.729 118.102 49.4876 118.352C49.2461 118.599 48.9478 118.793 48.5927 118.932C48.2376 119.068 47.8384 119.136 47.3952 119.136ZM51.6353 119V112.455H52.6069V113.443H52.6751C52.7944 113.119 53.0103 112.857 53.3228 112.655C53.6353 112.453 53.9876 112.352 54.3796 112.352C54.4535 112.352 54.5458 112.354 54.6566 112.357C54.7674 112.359 54.8512 112.364 54.908 112.369V113.392C54.8739 113.384 54.7958 113.371 54.6737 113.354C54.5543 113.334 54.4279 113.324 54.2944 113.324C53.9762 113.324 53.6921 113.391 53.4421 113.524C53.195 113.655 52.9989 113.837 52.854 114.07C52.712 114.3 52.641 114.562 52.641 114.858V119H51.6353Z" fill="black"/>
<path d="M95.8011 47.1193C95.4432 47.1136 95.0852 47.0455 94.7273 46.9148C94.3693 46.7841 94.0426 46.5639 93.7472 46.2543C93.4517 45.9418 93.2145 45.5199 93.0355 44.9886C92.8565 44.4545 92.767 43.7841 92.767 42.9773C92.767 42.2045 92.8395 41.5199 92.9844 40.9233C93.1293 40.3239 93.3395 39.8196 93.6151 39.4105C93.8906 38.9986 94.223 38.6861 94.6122 38.473C95.0043 38.2599 95.446 38.1534 95.9375 38.1534C96.4261 38.1534 96.8608 38.2514 97.2415 38.4474C97.625 38.6406 97.9375 38.9105 98.179 39.2571C98.4205 39.6037 98.5767 40.0028 98.6477 40.4545H97.608C97.5114 40.0625 97.3239 39.7372 97.0455 39.4787C96.767 39.2202 96.3977 39.0909 95.9375 39.0909C95.2614 39.0909 94.7287 39.3849 94.3395 39.973C93.9531 40.5611 93.7585 41.3864 93.7557 42.4489H93.8239C93.983 42.2074 94.1719 42.0014 94.3906 41.831C94.6122 41.6577 94.8565 41.5241 95.1236 41.4304C95.3906 41.3366 95.6733 41.2898 95.9716 41.2898C96.4716 41.2898 96.929 41.4148 97.3438 41.6648C97.7585 41.9119 98.0909 42.2543 98.3409 42.6918C98.5909 43.1264 98.7159 43.625 98.7159 44.1875C98.7159 44.7273 98.5952 45.2216 98.3537 45.6705C98.1122 46.1165 97.7727 46.4716 97.3352 46.7358C96.9006 46.9972 96.3892 47.125 95.8011 47.1193ZM95.8011 46.1818C96.1591 46.1818 96.4801 46.0923 96.7642 45.9134C97.0511 45.7344 97.277 45.4943 97.4418 45.1932C97.6094 44.892 97.6932 44.5568 97.6932 44.1875C97.6932 43.8267 97.6122 43.4986 97.4503 43.2031C97.2912 42.9048 97.071 42.6676 96.7898 42.4915C96.5114 42.3153 96.1932 42.2273 95.8352 42.2273C95.5653 42.2273 95.3139 42.2812 95.081 42.3892C94.848 42.4943 94.6435 42.6392 94.4673 42.8239C94.294 43.0085 94.1577 43.2202 94.0582 43.4588C93.9588 43.6946 93.9091 43.9432 93.9091 44.2045C93.9091 44.5511 93.9901 44.875 94.152 45.1761C94.3168 45.4773 94.5412 45.7202 94.8253 45.9048C95.1122 46.0895 95.4375 46.1818 95.8011 46.1818ZM103.238 47.1193C102.596 47.1193 102.049 46.9446 101.598 46.5952C101.146 46.2429 100.801 45.733 100.562 45.0653C100.324 44.3949 100.204 43.5852 100.204 42.6364C100.204 41.6932 100.324 40.8878 100.562 40.2202C100.804 39.5497 101.15 39.0384 101.602 38.6861C102.056 38.331 102.602 38.1534 103.238 38.1534C103.875 38.1534 104.419 38.331 104.87 38.6861C105.325 39.0384 105.672 39.5497 105.91 40.2202C106.152 40.8878 106.272 41.6932 106.272 42.6364C106.272 43.5852 106.153 44.3949 105.914 45.0653C105.676 45.733 105.331 46.2429 104.879 46.5952C104.427 46.9446 103.88 47.1193 103.238 47.1193ZM103.238 46.1818C103.875 46.1818 104.369 45.875 104.721 45.2614C105.074 44.6477 105.25 43.7727 105.25 42.6364C105.25 41.8807 105.169 41.2372 105.007 40.706C104.848 40.1747 104.618 39.7699 104.316 39.4915C104.018 39.2131 103.659 39.0739 103.238 39.0739C102.608 39.0739 102.115 39.3849 101.76 40.0071C101.404 40.6264 101.227 41.5028 101.227 42.6364C101.227 43.392 101.306 44.0341 101.466 44.5625C101.625 45.0909 101.853 45.4929 102.152 45.7685C102.453 46.044 102.815 46.1818 103.238 46.1818ZM112.341 45.3636V44.9034C112.341 44.5852 112.406 44.294 112.537 44.0298C112.67 43.7628 112.863 43.5497 113.116 43.3906C113.372 43.2287 113.681 43.1477 114.045 43.1477C114.414 43.1477 114.724 43.2287 114.974 43.3906C115.224 43.5497 115.413 43.7628 115.541 44.0298C115.669 44.294 115.733 44.5852 115.733 44.9034V45.3636C115.733 45.6818 115.667 45.9744 115.537 46.2415C115.409 46.5057 115.218 46.7187 114.966 46.8807C114.716 47.0398 114.409 47.1193 114.045 47.1193C113.676 47.1193 113.365 47.0398 113.112 46.8807C112.859 46.7187 112.667 46.5057 112.537 46.2415C112.406 45.9744 112.341 45.6818 112.341 45.3636ZM113.21 44.9034V45.3636C113.21 45.6278 113.272 45.8651 113.397 46.0753C113.522 46.2827 113.738 46.3864 114.045 46.3864C114.343 46.3864 114.554 46.2827 114.676 46.0753C114.801 45.8651 114.863 45.6278 114.863 45.3636V44.9034C114.863 44.6392 114.804 44.4034 114.684 44.196C114.565 43.9858 114.352 43.8807 114.045 43.8807C113.747 43.8807 113.532 43.9858 113.402 44.196C113.274 44.4034 113.21 44.6392 113.21 44.9034ZM107.994 40.3693V39.9091C107.994 39.5909 108.059 39.2997 108.19 39.0355C108.324 38.7685 108.517 38.5554 108.77 38.3963C109.025 38.2344 109.335 38.1534 109.699 38.1534C110.068 38.1534 110.377 38.2344 110.627 38.3963C110.877 38.5554 111.066 38.7685 111.194 39.0355C111.322 39.2997 111.386 39.5909 111.386 39.9091V40.3693C111.386 40.6875 111.321 40.9801 111.19 41.2472C111.062 41.5114 110.872 41.7244 110.619 41.8864C110.369 42.0455 110.062 42.125 109.699 42.125C109.329 42.125 109.018 42.0455 108.765 41.8864C108.512 41.7244 108.321 41.5114 108.19 41.2472C108.059 40.9801 107.994 40.6875 107.994 40.3693ZM108.863 39.9091V40.3693C108.863 40.6335 108.926 40.8707 109.051 41.081C109.176 41.2884 109.392 41.392 109.699 41.392C109.997 41.392 110.207 41.2884 110.329 41.081C110.454 40.8707 110.517 40.6335 110.517 40.3693V39.9091C110.517 39.6449 110.457 39.4091 110.338 39.2017C110.218 38.9915 110.005 38.8864 109.699 38.8864C109.4 38.8864 109.186 38.9915 109.055 39.2017C108.927 39.4091 108.863 39.6449 108.863 39.9091ZM108.318 47L114.318 38.2727H115.289L109.289 47H108.318Z" fill="black"/>
<path d="M99.9034 65V64.233L102.784 61.0795C103.122 60.7102 103.401 60.3892 103.619 60.1165C103.838 59.8409 104 59.5824 104.105 59.3409C104.213 59.0966 104.267 58.8409 104.267 58.5739C104.267 58.267 104.193 58.0014 104.045 57.777C103.901 57.5526 103.702 57.3793 103.449 57.2571C103.196 57.1349 102.912 57.0739 102.597 57.0739C102.261 57.0739 101.969 57.1435 101.719 57.2827C101.472 57.419 101.28 57.6108 101.143 57.858C101.01 58.1051 100.943 58.3949 100.943 58.7273H99.9375C99.9375 58.2159 100.055 57.767 100.291 57.3807C100.527 56.9943 100.848 56.6932 101.254 56.4773C101.663 56.2614 102.122 56.1534 102.631 56.1534C103.142 56.1534 103.595 56.2614 103.99 56.4773C104.385 56.6932 104.695 56.9844 104.919 57.3509C105.143 57.7173 105.256 58.125 105.256 58.5739C105.256 58.8949 105.197 59.2088 105.081 59.5156C104.967 59.8196 104.768 60.1591 104.484 60.5341C104.203 60.9062 103.812 61.3608 103.312 61.8977L101.352 63.9943V64.0625H105.409V65H99.9034ZM111.618 63.3636V62.9034C111.618 62.5852 111.683 62.294 111.814 62.0298C111.947 61.7628 112.141 61.5497 112.393 61.3906C112.649 61.2287 112.959 61.1477 113.322 61.1477C113.692 61.1477 114.001 61.2287 114.251 61.3906C114.501 61.5497 114.69 61.7628 114.818 62.0298C114.946 62.294 115.01 62.5852 115.01 62.9034V63.3636C115.01 63.6818 114.945 63.9744 114.814 64.2415C114.686 64.5057 114.496 64.7187 114.243 64.8807C113.993 65.0398 113.686 65.1193 113.322 65.1193C112.953 65.1193 112.642 65.0398 112.389 64.8807C112.136 64.7187 111.945 64.5057 111.814 64.2415C111.683 63.9744 111.618 63.6818 111.618 63.3636ZM112.487 62.9034V63.3636C112.487 63.6278 112.55 63.8651 112.675 64.0753C112.8 64.2827 113.016 64.3864 113.322 64.3864C113.621 64.3864 113.831 64.2827 113.953 64.0753C114.078 63.8651 114.141 63.6278 114.141 63.3636V62.9034C114.141 62.6392 114.081 62.4034 113.962 62.196C113.842 61.9858 113.629 61.8807 113.322 61.8807C113.024 61.8807 112.81 61.9858 112.679 62.196C112.551 62.4034 112.487 62.6392 112.487 62.9034ZM107.271 58.3693V57.9091C107.271 57.5909 107.337 57.2997 107.467 57.0355C107.601 56.7685 107.794 56.5554 108.047 56.3963C108.303 56.2344 108.612 56.1534 108.976 56.1534C109.345 56.1534 109.655 56.2344 109.905 56.3963C110.155 56.5554 110.344 56.7685 110.472 57.0355C110.599 57.2997 110.663 57.5909 110.663 57.9091V58.3693C110.663 58.6875 110.598 58.9801 110.467 59.2472C110.339 59.5114 110.149 59.7244 109.896 59.8864C109.646 60.0455 109.339 60.125 108.976 60.125C108.607 60.125 108.295 60.0455 108.043 59.8864C107.79 59.7244 107.598 59.5114 107.467 59.2472C107.337 58.9801 107.271 58.6875 107.271 58.3693ZM108.141 57.9091V58.3693C108.141 58.6335 108.203 58.8707 108.328 59.081C108.453 59.2884 108.669 59.392 108.976 59.392C109.274 59.392 109.484 59.2884 109.607 59.081C109.732 58.8707 109.794 58.6335 109.794 58.3693V57.9091C109.794 57.6449 109.734 57.4091 109.615 57.2017C109.496 56.9915 109.283 56.8864 108.976 56.8864C108.678 56.8864 108.463 56.9915 108.332 57.2017C108.205 57.4091 108.141 57.6449 108.141 57.9091ZM107.595 65L113.595 56.2727H114.567L108.567 65H107.595Z" fill="black"/>
<path d="M92.9034 83V82.233L95.7841 79.0795C96.1222 78.7102 96.4006 78.3892 96.6193 78.1165C96.8381 77.8409 97 77.5824 97.1051 77.3409C97.2131 77.0966 97.267 76.8409 97.267 76.5739C97.267 76.267 97.1932 76.0014 97.0455 75.777C96.9006 75.5526 96.7017 75.3793 96.4489 75.2571C96.196 75.1349 95.9119 75.0739 95.5966 75.0739C95.2614 75.0739 94.9688 75.1435 94.7188 75.2827C94.4716 75.419 94.2798 75.6108 94.1435 75.858C94.0099 76.1051 93.9432 76.3949 93.9432 76.7273H92.9375C92.9375 76.2159 93.0554 75.767 93.2912 75.3807C93.527 74.9943 93.848 74.6932 94.2543 74.4773C94.6634 74.2614 95.1222 74.1534 95.6307 74.1534C96.142 74.1534 96.5952 74.2614 96.9901 74.4773C97.3849 74.6932 97.6946 74.9844 97.919 75.3509C98.1435 75.7173 98.2557 76.125 98.2557 76.5739C98.2557 76.8949 98.1974 77.2088 98.081 77.5156C97.9673 77.8196 97.7685 78.1591 97.4844 78.5341C97.2031 78.9062 96.8125 79.3608 96.3125 79.8977L94.3523 81.9943V82.0625H98.4091V83H92.9034ZM100.169 83V82.233L103.05 79.0795C103.388 78.7102 103.666 78.3892 103.885 78.1165C104.104 77.8409 104.266 77.5824 104.371 77.3409C104.479 77.0966 104.533 76.8409 104.533 76.5739C104.533 76.267 104.459 76.0014 104.311 75.777C104.166 75.5526 103.967 75.3793 103.714 75.2571C103.462 75.1349 103.178 75.0739 102.862 75.0739C102.527 75.0739 102.234 75.1435 101.984 75.2827C101.737 75.419 101.545 75.6108 101.409 75.858C101.276 76.1051 101.209 76.3949 101.209 76.7273H100.203C100.203 76.2159 100.321 75.767 100.557 75.3807C100.793 74.9943 101.114 74.6932 101.52 74.4773C101.929 74.2614 102.388 74.1534 102.896 74.1534C103.408 74.1534 103.861 74.2614 104.256 74.4773C104.651 74.6932 104.96 74.9844 105.185 75.3509C105.409 75.7173 105.521 76.125 105.521 76.5739C105.521 76.8949 105.463 77.2088 105.347 77.5156C105.233 77.8196 105.034 78.1591 104.75 78.5341C104.469 78.9062 104.078 79.3608 103.578 79.8977L101.618 81.9943V82.0625H105.675V83H100.169ZM111.884 81.3636V80.9034C111.884 80.5852 111.949 80.294 112.08 80.0298C112.213 79.7628 112.406 79.5497 112.659 79.3906C112.915 79.2287 113.224 79.1477 113.588 79.1477C113.957 79.1477 114.267 79.2287 114.517 79.3906C114.767 79.5497 114.956 79.7628 115.084 80.0298C115.212 80.294 115.276 80.5852 115.276 80.9034V81.3636C115.276 81.6818 115.21 81.9744 115.08 82.2415C114.952 82.5057 114.761 82.7187 114.509 82.8807C114.259 83.0398 113.952 83.1193 113.588 83.1193C113.219 83.1193 112.908 83.0398 112.655 82.8807C112.402 82.7187 112.21 82.5057 112.08 82.2415C111.949 81.9744 111.884 81.6818 111.884 81.3636ZM112.753 80.9034V81.3636C112.753 81.6278 112.815 81.8651 112.94 82.0753C113.065 82.2827 113.281 82.3864 113.588 82.3864C113.886 82.3864 114.097 82.2827 114.219 82.0753C114.344 81.8651 114.406 81.6278 114.406 81.3636V80.9034C114.406 80.6392 114.347 80.4034 114.227 80.196C114.108 79.9858 113.895 79.8807 113.588 79.8807C113.29 79.8807 113.075 79.9858 112.945 80.196C112.817 80.4034 112.753 80.6392 112.753 80.9034ZM107.537 76.3693V75.9091C107.537 75.5909 107.602 75.2997 107.733 75.0355C107.866 74.7685 108.06 74.5554 108.312 74.3963C108.568 74.2344 108.878 74.1534 109.241 74.1534C109.611 74.1534 109.92 74.2344 110.17 74.3963C110.42 74.5554 110.609 74.7685 110.737 75.0355C110.865 75.2997 110.929 75.5909 110.929 75.9091V76.3693C110.929 76.6875 110.864 76.9801 110.733 77.2472C110.605 77.5114 110.415 77.7244 110.162 77.8864C109.912 78.0455 109.605 78.125 109.241 78.125C108.872 78.125 108.561 78.0455 108.308 77.8864C108.055 77.7244 107.864 77.5114 107.733 77.2472C107.602 76.9801 107.537 76.6875 107.537 76.3693ZM108.406 75.9091V76.3693C108.406 76.6335 108.469 76.8707 108.594 77.081C108.719 77.2884 108.935 77.392 109.241 77.392C109.54 77.392 109.75 77.2884 109.872 77.081C109.997 76.8707 110.06 76.6335 110.06 76.3693V75.9091C110.06 75.6449 110 75.4091 109.881 75.2017C109.761 74.9915 109.548 74.8864 109.241 74.8864C108.943 74.8864 108.729 74.9915 108.598 75.2017C108.47 75.4091 108.406 75.6449 108.406 75.9091ZM107.861 83L113.861 74.2727H114.832L108.832 83H107.861Z" fill="black"/>
<path d="M102.852 101.119C102.29 101.119 101.788 101.023 101.348 100.83C100.911 100.636 100.563 100.368 100.304 100.024C100.048 99.6776 99.9091 99.2756 99.8864 98.8182H100.96C100.983 99.0994 101.08 99.3423 101.25 99.5469C101.42 99.7486 101.643 99.9048 101.919 100.016C102.195 100.126 102.5 100.182 102.835 100.182C103.21 100.182 103.543 100.116 103.832 99.9858C104.122 99.8551 104.349 99.6733 104.514 99.4403C104.679 99.2074 104.761 98.9375 104.761 98.6307C104.761 98.3097 104.682 98.027 104.523 97.7827C104.364 97.5355 104.131 97.3423 103.824 97.2031C103.517 97.0639 103.142 96.9943 102.699 96.9943H102V96.0568H102.699C103.045 96.0568 103.349 95.9943 103.611 95.8693C103.875 95.7443 104.081 95.5682 104.229 95.3409C104.379 95.1136 104.455 94.8466 104.455 94.5398C104.455 94.2443 104.389 93.9872 104.259 93.7685C104.128 93.5497 103.943 93.3793 103.705 93.2571C103.469 93.1349 103.19 93.0739 102.869 93.0739C102.568 93.0739 102.284 93.1293 102.017 93.2401C101.753 93.348 101.537 93.5057 101.369 93.7131C101.202 93.9176 101.111 94.1648 101.097 94.4545H100.074C100.091 93.9972 100.229 93.5966 100.487 93.2528C100.746 92.9062 101.084 92.6364 101.501 92.4432C101.922 92.25 102.384 92.1534 102.886 92.1534C103.426 92.1534 103.889 92.2628 104.276 92.4815C104.662 92.6974 104.959 92.983 105.166 93.3381C105.374 93.6932 105.477 94.0767 105.477 94.4886C105.477 94.9801 105.348 95.3991 105.089 95.7457C104.834 96.0923 104.486 96.3324 104.045 96.4659V96.5341C104.597 96.625 105.027 96.8594 105.337 97.2372C105.646 97.6122 105.801 98.0767 105.801 98.6307C105.801 99.1051 105.672 99.5312 105.413 99.9091C105.158 100.284 104.808 100.58 104.365 100.795C103.922 101.011 103.418 101.119 102.852 101.119ZM111.993 99.3636V98.9034C111.993 98.5852 112.058 98.294 112.189 98.0298C112.322 97.7628 112.516 97.5497 112.768 97.3906C113.024 97.2287 113.334 97.1477 113.697 97.1477C114.067 97.1477 114.376 97.2287 114.626 97.3906C114.876 97.5497 115.065 97.7628 115.193 98.0298C115.321 98.294 115.385 98.5852 115.385 98.9034V99.3636C115.385 99.6818 115.32 99.9744 115.189 100.241C115.061 100.506 114.871 100.719 114.618 100.881C114.368 101.04 114.061 101.119 113.697 101.119C113.328 101.119 113.017 101.04 112.764 100.881C112.511 100.719 112.32 100.506 112.189 100.241C112.058 99.9744 111.993 99.6818 111.993 99.3636ZM112.862 98.9034V99.3636C112.862 99.6278 112.925 99.8651 113.05 100.075C113.175 100.283 113.391 100.386 113.697 100.386C113.996 100.386 114.206 100.283 114.328 100.075C114.453 99.8651 114.516 99.6278 114.516 99.3636V98.9034C114.516 98.6392 114.456 98.4034 114.337 98.196C114.217 97.9858 114.004 97.8807 113.697 97.8807C113.399 97.8807 113.185 97.9858 113.054 98.196C112.926 98.4034 112.862 98.6392 112.862 98.9034ZM107.646 94.3693V93.9091C107.646 93.5909 107.712 93.2997 107.842 93.0355C107.976 92.7685 108.169 92.5554 108.422 92.3963C108.678 92.2344 108.987 92.1534 109.351 92.1534C109.72 92.1534 110.03 92.2344 110.28 92.3963C110.53 92.5554 110.719 92.7685 110.847 93.0355C110.974 93.2997 111.038 93.5909 111.038 93.9091V94.3693C111.038 94.6875 110.973 94.9801 110.842 95.2472C110.714 95.5114 110.524 95.7244 110.271 95.8864C110.021 96.0455 109.714 96.125 109.351 96.125C108.982 96.125 108.67 96.0455 108.418 95.8864C108.165 95.7244 107.973 95.5114 107.842 95.2472C107.712 94.9801 107.646 94.6875 107.646 94.3693ZM108.516 93.9091V94.3693C108.516 94.6335 108.578 94.8707 108.703 95.081C108.828 95.2884 109.044 95.392 109.351 95.392C109.649 95.392 109.859 95.2884 109.982 95.081C110.107 94.8707 110.169 94.6335 110.169 94.3693V93.9091C110.169 93.6449 110.109 93.4091 109.99 93.2017C109.871 92.9915 109.658 92.8864 109.351 92.8864C109.053 92.8864 108.838 92.9915 108.707 93.2017C108.58 93.4091 108.516 93.6449 108.516 93.9091ZM107.97 101L113.97 92.2727H114.942L108.942 101H107.97Z" fill="black"/>
<path d="M97.9716 110.273V119H96.9148V111.381H96.8636L94.733 112.795V111.722L96.9148 110.273H97.9716ZM103.43 119.119C102.868 119.119 102.366 119.023 101.926 118.83C101.489 118.636 101.141 118.368 100.882 118.024C100.626 117.678 100.487 117.276 100.464 116.818H101.538C101.561 117.099 101.658 117.342 101.828 117.547C101.999 117.749 102.222 117.905 102.497 118.016C102.773 118.126 103.078 118.182 103.413 118.182C103.788 118.182 104.121 118.116 104.411 117.986C104.7 117.855 104.928 117.673 105.092 117.44C105.257 117.207 105.339 116.938 105.339 116.631C105.339 116.31 105.26 116.027 105.101 115.783C104.942 115.536 104.709 115.342 104.402 115.203C104.095 115.064 103.72 114.994 103.277 114.994H102.578V114.057H103.277C103.624 114.057 103.928 113.994 104.189 113.869C104.453 113.744 104.659 113.568 104.807 113.341C104.957 113.114 105.033 112.847 105.033 112.54C105.033 112.244 104.967 111.987 104.837 111.768C104.706 111.55 104.521 111.379 104.283 111.257C104.047 111.135 103.768 111.074 103.447 111.074C103.146 111.074 102.862 111.129 102.595 111.24C102.331 111.348 102.115 111.506 101.947 111.713C101.78 111.918 101.689 112.165 101.675 112.455H100.652C100.669 111.997 100.807 111.597 101.065 111.253C101.324 110.906 101.662 110.636 102.08 110.443C102.5 110.25 102.962 110.153 103.464 110.153C104.004 110.153 104.467 110.263 104.854 110.482C105.24 110.697 105.537 110.983 105.744 111.338C105.952 111.693 106.055 112.077 106.055 112.489C106.055 112.98 105.926 113.399 105.668 113.746C105.412 114.092 105.064 114.332 104.624 114.466V114.534C105.175 114.625 105.605 114.859 105.915 115.237C106.224 115.612 106.379 116.077 106.379 116.631C106.379 117.105 106.25 117.531 105.991 117.909C105.736 118.284 105.386 118.58 104.943 118.795C104.5 119.011 103.996 119.119 103.43 119.119ZM112.571 117.364V116.903C112.571 116.585 112.636 116.294 112.767 116.03C112.901 115.763 113.094 115.55 113.347 115.391C113.602 115.229 113.912 115.148 114.276 115.148C114.645 115.148 114.955 115.229 115.205 115.391C115.455 115.55 115.643 115.763 115.771 116.03C115.899 116.294 115.963 116.585 115.963 116.903V117.364C115.963 117.682 115.898 117.974 115.767 118.241C115.639 118.506 115.449 118.719 115.196 118.881C114.946 119.04 114.639 119.119 114.276 119.119C113.906 119.119 113.595 119.04 113.342 118.881C113.089 118.719 112.898 118.506 112.767 118.241C112.636 117.974 112.571 117.682 112.571 117.364ZM113.44 116.903V117.364C113.44 117.628 113.503 117.865 113.628 118.075C113.753 118.283 113.969 118.386 114.276 118.386C114.574 118.386 114.784 118.283 114.906 118.075C115.031 117.865 115.094 117.628 115.094 117.364V116.903C115.094 116.639 115.034 116.403 114.915 116.196C114.795 115.986 114.582 115.881 114.276 115.881C113.977 115.881 113.763 115.986 113.632 116.196C113.504 116.403 113.44 116.639 113.44 116.903ZM108.224 112.369V111.909C108.224 111.591 108.29 111.3 108.42 111.036C108.554 110.768 108.747 110.555 109 110.396C109.256 110.234 109.565 110.153 109.929 110.153C110.298 110.153 110.608 110.234 110.858 110.396C111.108 110.555 111.297 110.768 111.425 111.036C111.553 111.3 111.616 111.591 111.616 111.909V112.369C111.616 112.687 111.551 112.98 111.42 113.247C111.293 113.511 111.102 113.724 110.849 113.886C110.599 114.045 110.293 114.125 109.929 114.125C109.56 114.125 109.249 114.045 108.996 113.886C108.743 113.724 108.551 113.511 108.42 113.247C108.29 112.98 108.224 112.687 108.224 112.369ZM109.094 111.909V112.369C109.094 112.634 109.156 112.871 109.281 113.081C109.406 113.288 109.622 113.392 109.929 113.392C110.227 113.392 110.438 113.288 110.56 113.081C110.685 112.871 110.747 112.634 110.747 112.369V111.909C110.747 111.645 110.688 111.409 110.568 111.202C110.449 110.991 110.236 110.886 109.929 110.886C109.631 110.886 109.416 110.991 109.286 111.202C109.158 111.409 109.094 111.645 109.094 111.909ZM108.548 119L114.548 110.273H115.52L109.52 119H108.548Z" fill="black"/>
</svg>
